# 3ds Max Wavefront OBJ Exporter v0.97b - (c)2007 guruware
# File Created: 06.06.2021 17:42:55

#
# object Body
#

v  -27.1492 65.0122 5.6363
v  -27.1492 65.0122 -19.0678
v  49.3668 65.0122 -19.0678
v  49.3668 65.0122 5.6363
v  -27.1457 66.4707 5.6363
v  49.3703 66.4707 5.6363
v  49.3703 66.4707 -19.0678
v  -27.1457 66.4707 -19.0678
v  -25.8922 80.3692 7.1991
v  -25.8922 80.3692 -19.4268
v  -30.2886 80.3692 -19.4268
v  -30.2886 80.3692 7.1991
v  -25.8922 10.5656 7.1991
v  -30.2886 10.5656 7.1991
v  -30.2886 10.5656 -19.4268
v  -25.8922 10.5656 -19.4268
v  -27.1492 51.1717 5.6363
v  -27.1492 51.1717 -19.0678
v  49.3668 51.1717 -19.0678
v  49.3668 51.1717 5.6363
v  -27.1457 52.6303 5.6363
v  49.3703 52.6303 5.6363
v  49.3703 52.6303 -19.0678
v  -27.1457 52.6303 -19.0678
v  -27.1492 36.4620 5.6363
v  -27.1492 36.4620 -19.0678
v  49.3668 36.4620 -19.0678
v  49.3668 36.4620 5.6363
v  -27.1457 37.9206 5.6363
v  49.3703 37.9206 5.6363
v  49.3703 37.9206 -19.0678
v  -27.1457 37.9206 -19.0678
v  -27.1492 23.5463 5.6363
v  -27.1492 23.5463 -19.0678
v  49.3668 23.5463 -19.0678
v  49.3668 23.5463 5.6363
v  -27.1457 25.0049 5.6363
v  49.3703 25.0049 5.6363
v  49.3703 25.0049 -19.0678
v  -27.1457 25.0049 -19.0678
v  -30.4649 78.4717 7.4953
v  -30.4649 78.4717 -19.8044
v  49.3668 78.4717 -19.8044
v  49.3668 78.4717 7.4953
v  -30.4649 84.0107 7.4953
v  49.3668 84.0107 7.4953
v  49.3668 84.0107 -19.8044
v  -30.4649 84.0107 -19.8044
v  49.4440 80.3692 7.1991
v  49.4439 80.3692 -19.4268
v  45.0476 80.3692 -19.4268
v  45.0476 80.3692 7.1991
v  49.4440 10.5656 7.1991
v  45.0476 10.5656 7.1991
v  45.0476 10.5656 -19.4268
v  49.4439 10.5656 -19.4268
v  -30.4649 5.3558 7.4953
v  -30.4649 5.3558 -19.8044
v  49.3668 5.3558 -19.8044
v  49.3668 5.3558 7.4953
v  -30.4649 10.8948 7.4953
v  49.3668 10.8948 7.4953
v  49.3668 10.8948 -19.8044
v  -30.4649 10.8948 -19.8044
v  -30.5985 0.0000 12.0076
v  -30.5985 0.0000 -20.0396
v  49.4071 0.0000 -20.0396
v  49.4071 0.0000 12.0076
v  -30.5985 5.3536 12.0076
v  49.4071 5.3536 12.0076
v  49.4071 5.3536 -20.0396
v  -30.5985 5.3536 -20.0396
v  -28.4057 80.3692 -14.9779
v  47.8074 80.3692 -14.9779
v  47.8074 80.3692 -19.3743
v  -28.4057 80.3692 -19.3743
v  -28.4057 10.5656 -14.9779
v  -28.4057 10.5656 -19.3743
v  47.8074 10.5656 -19.3743
v  47.8074 10.5656 -14.9779
# 80 vertices

vn -0.5780 -0.5768 0.5773
vn -0.5780 -0.5768 -0.5773
vn 0.5765 -0.5780 -0.5775
vn 0.5765 -0.5780 0.5775
vn -0.5765 0.5780 0.5775
vn 0.5780 0.5768 0.5773
vn 0.5780 0.5768 -0.5773
vn -0.5765 0.5780 -0.5775
vn 0.5774 0.5774 0.5774
vn 0.5774 0.5774 -0.5774
vn -0.5774 0.5774 -0.5774
vn -0.5774 0.5774 0.5774
vn 0.5774 -0.5774 0.5774
vn -0.5774 -0.5774 0.5774
vn -0.5774 -0.5774 -0.5774
vn 0.5774 -0.5774 -0.5774
# 16 vertex normals

vt 0.4349 0.5459 0.0000
vt 0.4925 0.5459 0.0000
vt 0.4925 0.7244 0.0000
vt 0.4349 0.7244 0.0000
vt 0.4925 0.3120 0.0000
vt 0.4925 0.4905 0.0000
vt 0.4349 0.4905 0.0000
vt 0.4349 0.3120 0.0000
vt 0.0505 0.9461 0.0000
vt 0.2290 0.9461 0.0000
vt 0.2290 0.9495 0.0000
vt 0.0505 0.9495 0.0000
vt 0.9059 0.4151 0.0000
vt 0.9059 0.4727 0.0000
vt 0.9025 0.4727 0.0000
vt 0.9025 0.4151 0.0000
vt 0.3115 0.3121 0.0000
vt 0.3115 0.4906 0.0000
vt 0.3081 0.4905 0.0000
vt 0.3081 0.3120 0.0000
vt 0.6410 0.5102 0.0000
vt 0.6986 0.5102 0.0000
vt 0.6986 0.5136 0.0000
vt 0.6410 0.5136 0.0000
vt 0.9048 0.8827 0.0000
vt 0.9048 0.9448 0.0000
vt 0.8946 0.9448 0.0000
vt 0.8946 0.8827 0.0000
vt 0.8375 0.9448 0.0000
vt 0.8272 0.9448 0.0000
vt 0.8272 0.8827 0.0000
vt 0.8375 0.8827 0.0000
vt 0.6370 0.9425 0.0000
vt 0.6370 0.7797 0.0000
vt 0.6991 0.7797 0.0000
vt 0.6991 0.9425 0.0000
vt 0.4824 0.9425 0.0000
vt 0.4824 0.7797 0.0000
vt 0.4927 0.7797 0.0000
vt 0.4927 0.9425 0.0000
vt 0.8074 0.4749 0.0000
vt 0.8074 0.3120 0.0000
vt 0.8695 0.3120 0.0000
vt 0.8695 0.4749 0.0000
vt 0.8946 0.2411 0.0000
vt 0.8946 0.0782 0.0000
vt 0.9048 0.0782 0.0000
vt 0.9048 0.2411 0.0000
vt 0.3794 0.0782 0.0000
vt 0.4370 0.0782 0.0000
vt 0.4370 0.2567 0.0000
vt 0.3794 0.2567 0.0000
vt 0.4014 0.3120 0.0000
vt 0.4014 0.4905 0.0000
vt 0.3437 0.4905 0.0000
vt 0.3437 0.3120 0.0000
vt 0.2758 0.3120 0.0000
vt 0.2758 0.4905 0.0000
vt 0.2724 0.4906 0.0000
vt 0.2724 0.3121 0.0000
vt 0.7559 0.5102 0.0000
vt 0.8135 0.5102 0.0000
vt 0.8135 0.5136 0.0000
vt 0.7559 0.5136 0.0000
vt 0.2758 0.0782 0.0000
vt 0.2758 0.2567 0.0000
vt 0.2724 0.2567 0.0000
vt 0.2724 0.0782 0.0000
vt 0.9059 0.3002 0.0000
vt 0.9059 0.3578 0.0000
vt 0.9025 0.3578 0.0000
vt 0.9025 0.3002 0.0000
vt 0.4706 0.0782 0.0000
vt 0.5282 0.0782 0.0000
vt 0.5282 0.2567 0.0000
vt 0.4706 0.2567 0.0000
vt 0.4014 0.5459 0.0000
vt 0.4014 0.7244 0.0000
vt 0.3437 0.7244 0.0000
vt 0.3437 0.5459 0.0000
vt 0.2758 0.5459 0.0000
vt 0.2758 0.7244 0.0000
vt 0.2724 0.7244 0.0000
vt 0.2724 0.5459 0.0000
vt 0.8901 0.7915 0.0000
vt 0.8901 0.8492 0.0000
vt 0.8867 0.8492 0.0000
vt 0.8867 0.7915 0.0000
vt 0.3115 0.0782 0.0000
vt 0.3115 0.2567 0.0000
vt 0.3081 0.2567 0.0000
vt 0.3081 0.0782 0.0000
vt 0.8306 0.7915 0.0000
vt 0.8306 0.8492 0.0000
vt 0.8272 0.8492 0.0000
vt 0.8272 0.7915 0.0000
vt 0.5260 0.3120 0.0000
vt 0.5837 0.3120 0.0000
vt 0.5837 0.4905 0.0000
vt 0.5260 0.4905 0.0000
vt 0.6193 0.0782 0.0000
vt 0.6193 0.2567 0.0000
vt 0.5617 0.2567 0.0000
vt 0.5617 0.0782 0.0000
vt 0.3472 0.0782 0.0000
vt 0.3472 0.2567 0.0000
vt 0.3437 0.2567 0.0000
vt 0.3437 0.0782 0.0000
vt 0.8940 0.6528 0.0000
vt 0.8940 0.7105 0.0000
vt 0.8906 0.7105 0.0000
vt 0.8906 0.6528 0.0000
vt 0.3115 0.5459 0.0000
vt 0.3115 0.7244 0.0000
vt 0.3081 0.7244 0.0000
vt 0.3081 0.5459 0.0000
vt 0.8980 0.5538 0.0000
vt 0.8980 0.6114 0.0000
vt 0.8946 0.6114 0.0000
vt 0.8946 0.5538 0.0000
vt 0.0505 0.4233 0.0000
vt 0.0505 0.3596 0.0000
vt 0.2367 0.3596 0.0000
vt 0.2367 0.4233 0.0000
vt 0.0505 0.7480 0.0000
vt 0.2367 0.7480 0.0000
vt 0.2367 0.8116 0.0000
vt 0.0505 0.8116 0.0000
vt 0.0505 0.5062 0.0000
vt 0.2367 0.5062 0.0000
vt 0.2367 0.5191 0.0000
vt 0.0505 0.5191 0.0000
vt 0.6935 0.5459 0.0000
vt 0.6935 0.6095 0.0000
vt 0.6806 0.6095 0.0000
vt 0.6806 0.5459 0.0000
vt 0.0505 0.5538 0.0000
vt 0.2367 0.5538 0.0000
vt 0.2367 0.5667 0.0000
vt 0.0505 0.5667 0.0000
vt 0.7648 0.5459 0.0000
vt 0.7648 0.6095 0.0000
vt 0.7519 0.6095 0.0000
vt 0.7519 0.5459 0.0000
vt 0.8335 0.6489 0.0000
vt 0.8335 0.7110 0.0000
vt 0.8232 0.7110 0.0000
vt 0.8232 0.6489 0.0000
vt 0.7661 0.8378 0.0000
vt 0.7559 0.8378 0.0000
vt 0.7559 0.7757 0.0000
vt 0.7661 0.7757 0.0000
vt 0.6172 0.4749 0.0000
vt 0.6172 0.3120 0.0000
vt 0.6793 0.3120 0.0000
vt 0.6793 0.4749 0.0000
vt 0.5260 0.9425 0.0000
vt 0.5260 0.7797 0.0000
vt 0.5363 0.7797 0.0000
vt 0.5363 0.9425 0.0000
vt 0.7123 0.4749 0.0000
vt 0.7123 0.3120 0.0000
vt 0.7744 0.3120 0.0000
vt 0.7744 0.4749 0.0000
vt 0.5696 0.9425 0.0000
vt 0.5696 0.7797 0.0000
vt 0.5799 0.7797 0.0000
vt 0.5799 0.9425 0.0000
vt 0.0505 0.6650 0.0000
vt 0.0505 0.6013 0.0000
vt 0.2367 0.6013 0.0000
vt 0.2367 0.6650 0.0000
vt 0.0505 0.8470 0.0000
vt 0.2367 0.8470 0.0000
vt 0.2367 0.9107 0.0000
vt 0.0505 0.9107 0.0000
vt 0.0505 0.4587 0.0000
vt 0.2367 0.4587 0.0000
vt 0.2367 0.4716 0.0000
vt 0.0505 0.4716 0.0000
vt 0.8362 0.5459 0.0000
vt 0.8362 0.6095 0.0000
vt 0.8232 0.6095 0.0000
vt 0.8232 0.5459 0.0000
vt 0.0505 0.7004 0.0000
vt 0.2367 0.7004 0.0000
vt 0.2367 0.7133 0.0000
vt 0.0505 0.7133 0.0000
vt 0.7648 0.6489 0.0000
vt 0.7648 0.7126 0.0000
vt 0.7519 0.7126 0.0000
vt 0.7519 0.6489 0.0000
vt 0.0505 0.1728 0.0000
vt 0.0505 0.0981 0.0000
vt 0.2371 0.0981 0.0000
vt 0.2371 0.1728 0.0000
vt 0.0505 0.2050 0.0000
vt 0.2371 0.2050 0.0000
vt 0.2371 0.2798 0.0000
vt 0.0505 0.2798 0.0000
vt 0.0505 0.0505 0.0000
vt 0.2371 0.0505 0.0000
vt 0.2371 0.0630 0.0000
vt 0.0505 0.0630 0.0000
vt 0.6931 0.6489 0.0000
vt 0.6931 0.7236 0.0000
vt 0.6806 0.7236 0.0000
vt 0.6806 0.6489 0.0000
vt 0.0505 0.3120 0.0000
vt 0.2371 0.3120 0.0000
vt 0.2371 0.3245 0.0000
vt 0.0505 0.3245 0.0000
vt 0.7684 0.8708 0.0000
vt 0.7684 0.9456 0.0000
vt 0.7559 0.9456 0.0000
vt 0.7559 0.8708 0.0000
vt 0.5363 0.5459 0.0000
vt 0.5363 0.7236 0.0000
vt 0.5260 0.7236 0.0000
vt 0.5260 0.5459 0.0000
vt 0.5696 0.5459 0.0000
vt 0.5799 0.5459 0.0000
vt 0.5799 0.7236 0.0000
vt 0.5696 0.7236 0.0000
vt 0.2724 0.9425 0.0000
vt 0.2724 0.7797 0.0000
vt 0.4502 0.7797 0.0000
vt 0.4502 0.9425 0.0000
vt 0.6132 0.7087 0.0000
vt 0.6132 0.5459 0.0000
vt 0.6235 0.5459 0.0000
vt 0.6235 0.7087 0.0000
vt 0.6528 0.0782 0.0000
vt 0.8157 0.0782 0.0000
vt 0.8157 0.2560 0.0000
vt 0.6528 0.2560 0.0000
vt 0.8510 0.2411 0.0000
vt 0.8510 0.0782 0.0000
vt 0.8612 0.0782 0.0000
vt 0.8612 0.2411 0.0000
# 240 texture coords

o Body
g Body
s 2
f 1/1/1 2/2/2 3/3/3 4/4/4 
s 4
f 5/5/5 6/6/6 7/7/7 8/8/8 
s 8
f 1/9/1 4/10/4 6/11/6 5/12/5 
s 16
f 4/13/4 3/14/3 7/15/7 6/16/6 
s 32
f 3/17/3 2/18/2 8/19/8 7/20/7 
s 64
f 2/21/2 1/22/1 5/23/5 8/24/8 
s 2
f 9/25/9 10/26/10 11/27/11 12/28/12 
s 4
f 13/29/13 14/30/14 15/31/15 16/32/16 
s 8
f 9/33/9 13/34/13 16/35/16 10/36/10 
s 16
f 10/37/10 16/38/16 15/39/15 11/40/11 
s 32
f 11/41/11 15/42/15 14/43/14 12/44/12 
s 64
f 12/45/12 14/46/14 13/47/13 9/48/9 
s 2
f 17/49/1 18/50/2 19/51/3 20/52/4 
s 4
f 21/53/5 22/54/6 23/55/7 24/56/8 
s 8
f 17/57/1 20/58/4 22/59/6 21/60/5 
s 16
f 20/61/4 19/62/3 23/63/7 22/64/6 
s 32
f 19/65/3 18/66/2 24/67/8 23/68/7 
s 64
f 18/69/2 17/70/1 21/71/5 24/72/8 
s 2
f 25/73/1 26/74/2 27/75/3 28/76/4 
s 4
f 29/77/5 30/78/6 31/79/7 32/80/8 
s 8
f 25/81/1 28/82/4 30/83/6 29/84/5 
s 16
f 28/85/4 27/86/3 31/87/7 30/88/6 
s 32
f 27/89/3 26/90/2 32/91/8 31/92/7 
s 64
f 26/93/2 25/94/1 29/95/5 32/96/8 
s 2
f 33/97/1 34/98/2 35/99/3 36/100/4 
s 4
f 37/101/5 38/102/6 39/103/7 40/104/8 
s 8
f 33/105/1 36/106/4 38/107/6 37/108/5 
s 16
f 36/109/4 35/110/3 39/111/7 38/112/6 
s 32
f 35/113/3 34/114/2 40/115/8 39/116/7 
s 64
f 34/117/2 33/118/1 37/119/5 40/120/8 
s 2
f 41/121/14 42/122/15 43/123/16 44/124/13 
s 4
f 45/125/12 46/126/9 47/127/10 48/128/11 
s 8
f 41/129/14 44/130/13 46/131/9 45/132/12 
s 16
f 44/133/13 43/134/16 47/135/10 46/136/9 
s 32
f 43/137/16 42/138/15 48/139/11 47/140/10 
s 64
f 42/141/15 41/142/14 45/143/12 48/144/11 
s 2
f 49/145/9 50/146/10 51/147/11 52/148/12 
s 4
f 53/149/13 54/150/14 55/151/15 56/152/16 
s 8
f 49/153/9 53/154/13 56/155/16 50/156/10 
s 16
f 50/157/10 56/158/16 55/159/15 51/160/11 
s 32
f 51/161/11 55/162/15 54/163/14 52/164/12 
s 64
f 52/165/12 54/166/14 53/167/13 49/168/9 
s 2
f 57/169/14 58/170/15 59/171/16 60/172/13 
s 4
f 61/173/12 62/174/9 63/175/10 64/176/11 
s 8
f 57/177/14 60/178/13 62/179/9 61/180/12 
s 16
f 60/181/13 59/182/16 63/183/10 62/184/9 
s 32
f 59/185/16 58/186/15 64/187/11 63/188/10 
s 64
f 58/189/15 57/190/14 61/191/12 64/192/11 
s 2
f 65/193/14 66/194/15 67/195/16 68/196/13 
s 4
f 69/197/12 70/198/9 71/199/10 72/200/11 
s 8
f 65/201/14 68/202/13 70/203/9 69/204/12 
s 16
f 68/205/13 67/206/16 71/207/10 70/208/9 
s 32
f 67/209/16 66/210/15 72/211/11 71/212/10 
s 64
f 66/213/15 65/214/14 69/215/12 72/216/11 
s 2
f 73/217/12 74/218/9 75/219/10 76/220/11 
s 4
f 77/221/14 78/222/15 79/223/16 80/224/13 
s 8
f 73/225/12 77/226/14 80/227/13 74/228/9 
s 16
f 74/229/9 80/230/13 79/231/16 75/232/10 
s 32
f 75/233/10 79/234/16 78/235/15 76/236/11 
s 64
f 76/237/11 78/238/15 77/239/14 73/240/12 
# 60 polygons

#
# object Door
#

v  49.0919 9.5189 7.1414
v  49.0919 82.8959 7.1414
v  49.0919 82.8959 8.6801
v  49.0919 9.5189 8.6801
v  -29.9970 9.5189 7.1414
v  -29.9970 9.5189 8.6801
v  -29.9970 82.8959 8.6801
v  -29.9970 82.8959 7.1414
# 8 vertices

vn 0.5774 -0.5774 -0.5774
vn 0.5774 0.5774 -0.5774
vn 0.5774 0.5774 0.5774
vn 0.5774 -0.5774 0.5774
vn -0.5774 -0.5774 -0.5774
vn -0.5774 -0.5774 0.5774
vn -0.5774 0.5774 0.5774
vn -0.5774 0.5774 -0.5774
# 8 vertex normals

vt 0.0005 0.5268 0.0000
vt 0.4879 0.5268 0.0000
vt 0.4879 0.5370 0.0000
vt 0.0005 0.5370 0.0000
vt 0.4879 0.5377 0.0000
vt 0.4879 0.5479 0.0000
vt 0.0005 0.5479 0.0000
vt 0.0005 0.5377 0.0000
vt 0.5012 0.0005 0.0000
vt 0.5114 0.0005 0.0000
vt 0.5114 0.5258 0.0000
vt 0.5012 0.5258 0.0000
vt 0.5121 0.0005 0.0000
vt 0.9995 0.0005 0.0000
vt 0.9995 0.5258 0.0000
vt 0.5121 0.5258 0.0000
vt 0.4902 0.0005 0.0000
vt 0.5004 0.0005 0.0000
vt 0.5004 0.5258 0.0000
vt 0.4902 0.5258 0.0000
vt 0.0005 0.0005 0.0000
vt 0.4879 0.0005 0.0000
vt 0.4879 0.5258 0.0000
vt 0.0005 0.5258 0.0000
# 24 texture coords

o Door
g Door
s 2
f 81/241/17 82/242/18 83/243/19 84/244/20 
s 4
f 85/245/21 86/246/22 87/247/23 88/248/24 
s 8
f 81/249/17 84/250/20 86/251/22 85/252/21 
s 16
f 84/253/20 83/254/19 87/255/23 86/256/22 
s 32
f 83/257/19 82/258/18 88/259/24 87/260/23 
s 64
f 82/261/18 81/262/17 85/263/21 88/264/24 
# 6 polygons

#
# object Handle
#

v  -20.7862 54.9641 11.4500
v  -22.5261 54.9641 11.4500
v  -22.5261 39.9987 11.4500
v  -20.7862 39.9987 11.4500
v  -20.7862 54.9641 9.7832
v  -20.7862 39.9987 9.7832
v  -22.5261 39.9987 9.7832
v  -22.5261 54.9641 9.7832
v  -20.7987 54.9605 9.7427
v  -22.4522 54.9605 9.7427
v  -22.4522 53.3297 9.7427
v  -20.7987 53.3297 9.7427
v  -20.7987 54.9605 7.8088
v  -20.7987 53.3297 7.8088
v  -22.4522 53.3297 7.8088
v  -22.4522 54.9605 7.8088
v  -20.8151 41.7113 9.7427
v  -22.4686 41.7113 9.7427
v  -22.4686 40.0805 9.7427
v  -20.8151 40.0805 9.7427
v  -20.8151 41.7113 7.8088
v  -20.8151 40.0805 7.8088
v  -22.4686 40.0805 7.8088
v  -22.4686 41.7113 7.8088
# 24 vertices

vn 0.5774 0.5774 0.5774
vn -0.5774 0.5774 0.5774
vn -0.5774 -0.5774 0.5774
vn 0.5774 -0.5774 0.5774
vn 0.5774 0.5774 -0.5774
vn 0.5774 -0.5774 -0.5774
vn -0.5774 -0.5774 -0.5774
vn -0.5774 0.5774 -0.5774
# 8 vertex normals

vt 0.0505 0.1457 0.0000
vt 0.0505 0.0505 0.0000
vt 0.8696 0.0505 0.0000
vt 0.8696 0.1457 0.0000
vt 0.0505 0.4568 0.0000
vt 0.8696 0.4568 0.0000
vt 0.8696 0.5520 0.0000
vt 0.0505 0.5520 0.0000
vt 0.0505 0.3227 0.0000
vt 0.8696 0.3227 0.0000
vt 0.8696 0.4139 0.0000
vt 0.0505 0.4139 0.0000
vt 0.4261 0.7940 0.0000
vt 0.4261 0.8892 0.0000
vt 0.3349 0.8892 0.0000
vt 0.3349 0.7940 0.0000
vt 0.0505 0.1886 0.0000
vt 0.8696 0.1886 0.0000
vt 0.8696 0.2799 0.0000
vt 0.0505 0.2799 0.0000
vt 0.2921 0.7940 0.0000
vt 0.2921 0.8892 0.0000
vt 0.2008 0.8892 0.0000
vt 0.2008 0.7940 0.0000
vt 0.8590 0.7098 0.0000
vt 0.8590 0.6193 0.0000
vt 0.9483 0.6193 0.0000
vt 0.9483 0.7098 0.0000
vt 0.4690 0.7940 0.0000
vt 0.5582 0.7940 0.0000
vt 0.5582 0.8845 0.0000
vt 0.4690 0.8845 0.0000
vt 0.7290 0.6193 0.0000
vt 0.8182 0.6193 0.0000
vt 0.8182 0.7251 0.0000
vt 0.7290 0.7251 0.0000
vt 0.1563 0.7249 0.0000
vt 0.1563 0.8154 0.0000
vt 0.0505 0.8154 0.0000
vt 0.0505 0.7249 0.0000
vt 0.1563 0.5949 0.0000
vt 0.1563 0.6842 0.0000
vt 0.0505 0.6842 0.0000
vt 0.0505 0.5949 0.0000
vt 0.2008 0.6193 0.0000
vt 0.2913 0.6193 0.0000
vt 0.2913 0.7251 0.0000
vt 0.2008 0.7251 0.0000
vt 0.7290 0.8845 0.0000
vt 0.7290 0.7940 0.0000
vt 0.8182 0.7940 0.0000
vt 0.8182 0.8845 0.0000
vt 0.5990 0.7940 0.0000
vt 0.6882 0.7940 0.0000
vt 0.6882 0.8845 0.0000
vt 0.5990 0.8845 0.0000
vt 0.5990 0.6193 0.0000
vt 0.6882 0.6193 0.0000
vt 0.6882 0.7251 0.0000
vt 0.5990 0.7251 0.0000
vt 0.4649 0.6193 0.0000
vt 0.5554 0.6193 0.0000
vt 0.5554 0.7251 0.0000
vt 0.4649 0.7251 0.0000
vt 0.3349 0.6193 0.0000
vt 0.4242 0.6193 0.0000
vt 0.4242 0.7251 0.0000
vt 0.3349 0.7251 0.0000
vt 0.1563 0.8590 0.0000
vt 0.1563 0.9495 0.0000
vt 0.0505 0.9495 0.0000
vt 0.0505 0.8590 0.0000
# 72 texture coords

o Handle
g Handle
s 2
f 89/265/25 90/266/26 91/267/27 92/268/28 
s 4
f 93/269/29 94/270/30 95/271/31 96/272/32 
s 8
f 89/273/25 92/274/28 94/275/30 93/276/29 
s 16
f 92/277/28 91/278/27 95/279/31 94/280/30 
s 32
f 91/281/27 90/282/26 96/283/32 95/284/31 
s 64
f 90/285/26 89/286/25 93/287/29 96/288/32 
s 2
f 97/289/25 98/290/26 99/291/27 100/292/28 
s 4
f 101/293/29 102/294/30 103/295/31 104/296/32 
s 8
f 97/297/25 100/298/28 102/299/30 101/300/29 
s 16
f 100/301/28 99/302/27 103/303/31 102/304/30 
s 32
f 99/305/27 98/306/26 104/307/32 103/308/31 
s 64
f 98/309/26 97/310/25 101/311/29 104/312/32 
s 2
f 105/313/25 106/314/26 107/315/27 108/316/28 
s 4
f 109/317/29 110/318/30 111/319/31 112/320/32 
s 8
f 105/321/25 108/322/28 110/323/30 109/324/29 
s 16
f 108/325/28 107/326/27 111/327/31 110/328/30 
s 32
f 107/329/27 106/330/26 112/331/32 111/332/31 
s 64
f 106/333/26 105/334/25 109/335/29 112/336/32 
# 18 polygons

