# 3ds Max Wavefront OBJ Exporter v0.97b - (c)2007 guruware
# File Created: 01.06.2021 16:13:39

mtllib cereal.mtl

#
# object Box001
#

v  -28.6932 0.0000 8.6920
v  -28.6932 0.0000 -0.9172
v  -5.8070 0.0000 -0.9172
v  -5.8070 0.0000 8.6920
v  -28.6932 39.4132 8.6920
v  -5.8070 39.4132 8.6920
v  -5.8070 39.4132 -0.9172
v  -28.6932 39.4132 -0.9172
# 8 vertices

vn -0.5774 -0.5774 0.5774
vn -0.5774 -0.5774 -0.5774
vn 0.5774 -0.5774 -0.5774
vn 0.5774 -0.5774 0.5774
vn -0.5774 0.5774 0.5774
vn 0.5774 0.5774 0.5774
vn 0.5774 0.5774 -0.5774
vn -0.5774 0.5774 -0.5774
# 8 vertex normals

vt 0.0888 0.9495 0.0000
vt 0.0888 0.8174 0.0000
vt 0.4034 0.8174 0.0000
vt 0.4034 0.9495 0.0000
vt 0.4808 0.8174 0.0000
vt 0.7954 0.8174 0.0000
vt 0.7954 0.9495 0.0000
vt 0.4808 0.9495 0.0000
vt 0.5873 0.0505 0.0000
vt 0.9019 0.0505 0.0000
vt 0.9019 0.5923 0.0000
vt 0.5873 0.5923 0.0000
vt 0.6306 0.6385 0.0000
vt 0.6306 0.7706 0.0000
vt 0.0888 0.7706 0.0000
vt 0.0888 0.6385 0.0000
vt 0.2294 0.0505 0.0000
vt 0.5440 0.0505 0.0000
vt 0.5440 0.5923 0.0000
vt 0.2294 0.5923 0.0000
vt 0.1826 0.5923 0.0000
vt 0.0505 0.5923 0.0000
vt 0.0505 0.0505 0.0000
vt 0.1826 0.0505 0.0000
# 24 texture coords

o Box001
g Box001
usemtl wire_229166215
s 2
f 1/1/1 2/2/2 3/3/3 4/4/4 
s 4
f 5/5/5 6/6/6 7/7/7 8/8/8 
s 8
f 1/9/1 4/10/4 6/11/6 5/12/5 
s 16
f 4/13/4 3/14/3 7/15/7 6/16/6 
s 32
f 3/17/3 2/18/2 8/19/8 7/20/7 
s 64
f 2/21/2 1/22/1 5/23/5 8/24/8 
# 6 polygons

